<svg width="70" height="70" viewBox="0 0 70 70" fill="none" xmlns="http://www.w3.org/2000/svg">
<circle cx="35" cy="35" r="35" fill="#FE4300"/>
<path d="M12.5912 20.3297L20.653 12.2679C20.8246 12.0964 21.0571 12 21.2997 12C21.5423 12 21.7749 12.0964 21.9465 12.2679L24.3649 14.6864C24.5359 14.8574 24.6322 15.089 24.6328 15.3307L24.6497 21.7632C24.65 21.8664 24.6318 21.9675 24.5988 22.0632L30.2379 27.7023L28.0257 29.9145L22.3867 24.2737C22.2917 24.3065 22.1914 24.3228 22.089 24.3228C22.0882 24.3228 22.0874 24.3228 22.0866 24.3228L15.6541 24.3077C15.4124 24.307 15.1808 24.2116 15.0097 24.0407L12.5913 21.6226C12.234 21.2655 12.234 20.6868 12.5912 20.3297ZM16.0362 22.4814L21.7112 22.4963L22.8196 21.3879L22.8047 15.7129L21.2997 14.2079L14.5312 20.9764L16.0362 22.4814Z" fill="white"/>
<path d="M43.8511 48.3268C44.492 48.9677 45.3442 49.3207 46.2506 49.3207C47.1569 49.3207 48.0091 48.9677 48.6499 48.3268L48.6499 48.3267C49.2909 47.6858 49.6438 46.8337 49.6438 45.9274C49.6438 45.021 49.2909 44.1688 48.6499 43.5279L46.6675 41.5455L50.6325 37.5806L56.7444 43.6925C58.8155 45.7635 59.5268 48.7771 58.6005 51.5573L56.9207 56.5973L51.8806 58.2773C49.1001 59.2037 46.0867 58.4924 44.0158 56.4212L37.9038 50.3093L41.8687 46.3444L43.8511 48.3268Z" fill="white"/>
<path d="M47.3567 44.8148C47.6521 45.1102 47.8148 45.5092 47.8148 45.9272C47.8148 46.345 47.6521 46.7378 47.3568 47.0333C47.0614 47.3287 46.6685 47.4914 46.2506 47.4914C45.8327 47.4914 45.4399 47.3287 45.1444 47.0333L34.1903 36.0776L36.311 33.7725L47.3567 44.8148Z" fill="white"/>
<path d="M35.109 32.574L32.8969 34.7861L29.3188 31.2081L31.531 28.996L35.109 32.574Z" fill="white"/>
</svg>
